<svg xmlns="http://www.w3.org/2000/svg" viewBox="0 0 600 400" width="600" height="400"><defs><linearGradient id="b" x1="0" y1="0" x2="1" y2="1"><stop offset="0" stop-color="#ec4899"/><stop offset="1" stop-color="#f97316"/></linearGradient></defs><rect width="600" height="400" fill="url(#b)"/><circle cx="510" cy="60" r="120" fill="#fff" opacity=".13"/><circle cx="80" cy="350" r="95" fill="#fff" opacity=".1"/><ellipse cx="300" cy="352" rx="150" ry="14" fill="#1b1340" opacity=".2"/><g transform="rotate(-6 300 210)"><path d="M150 130h300v52a22 22 0 0 1 0 44v52H150v-52a22 22 0 0 1 0-44z" fill="#fff"/><path d="M390 140v164" stroke="#d9d0ff" stroke-width="3" stroke-dasharray="8 8"/><path d="M215 172l13 28 30 4-22 21 6 30-27-15-27 15 6-30-22-21 30-4z" fill="#f97316"/><rect x="285" y="178" width="90" height="14" rx="7" fill="#1b1340"/><rect x="285" y="204" width="64" height="10" rx="5" fill="#cfc6f5"/><path d="M410 160v110M420 160v110M430 160v110" stroke="#1b1340" stroke-width="4"/></g></svg>